<?xml version="1.0" standalone="no"?>
<!DOCTYPE svg PUBLIC "-//W3C//DTD SVG 20010904//EN"
 "http://www.w3.org/TR/2001/REC-SVG-20010904/DTD/svg10.dtd">
<svg version="1.0" xmlns="http://www.w3.org/2000/svg"
 width="500.000000pt" height="500.000000pt" viewBox="0 0 500.000000 500.000000"
 preserveAspectRatio="xMidYMid meet">

<g transform="translate(0.000000,500.000000) scale(0.100000,-0.100000)"
fill="#000000" stroke="none">
<path d="M2510 4365 c0 -3 7 -16 15 -29 14 -20 14 -41 2 -175 -12 -132 -17
-154 -36 -175 l-23 -24 79 -8 c43 -4 119 -8 168 -8 l90 -1 3 43 c2 23 -1 42
-6 42 -4 0 -21 -13 -37 -30 -24 -25 -36 -30 -77 -30 l-48 0 0 85 c0 84 0 85
25 85 15 0 31 -9 41 -25 25 -39 34 -30 34 36 l0 61 -31 -27 c-18 -14 -39 -24
-48 -23 -17 4 -18 16 -6 111 5 46 10 57 25 57 10 0 28 -15 39 -34 32 -50 81
-63 101 -26 15 29 4 56 -28 69 -39 15 -282 38 -282 26z"/>
<path d="M2005 4303 c-102 -21 -101 -20 -73 -46 21 -19 30 -48 53 -170 25
-128 27 -149 15 -171 -7 -14 -11 -28 -8 -31 10 -10 202 36 242 58 54 30 103
96 111 151 9 56 -7 107 -48 153 -63 71 -144 87 -292 56z m145 -39 c55 -47 86
-140 74 -223 -8 -54 -69 -127 -84 -100 -11 19 -56 230 -64 297 -6 50 -6 52 18
52 13 0 38 -12 56 -26z"/>
<path d="M3019 4249 l-21 -42 24 6 c12 3 44 11 69 18 82 21 84 15 39 -110 -46
-129 -85 -210 -105 -218 -32 -12 -11 -30 68 -56 45 -15 84 -27 87 -27 3 0 6
26 7 58 1 71 78 312 99 312 16 0 48 -33 75 -77 12 -18 24 -33 29 -33 12 0 24
80 13 91 -10 10 -328 119 -348 119 -8 0 -24 -19 -36 -41z"/>
<path d="M1403 4044 c-40 -26 -73 -49 -73 -53 0 -5 11 -13 25 -19 51 -23 185
-240 185 -299 0 -13 3 -23 6 -23 4 0 40 21 80 46 71 44 90 64 60 64 -40 0
-196 243 -196 306 0 13 -3 24 -7 24 -5 0 -41 -21 -80 -46z"/>
<path d="M3610 4015 c0 -19 -21 -41 -96 -101 -132 -105 -162 -124 -195 -124
-16 0 -29 -4 -29 -9 0 -7 109 -85 111 -79 0 2 1 22 3 45 2 40 19 73 37 73 12
0 109 -70 109 -78 0 -15 -41 -73 -55 -78 -8 -4 -15 -10 -15 -14 0 -8 144 -110
155 -110 4 0 4 11 1 24 -4 15 13 82 44 180 28 86 50 166 50 176 0 34 -22 69
-61 95 -48 31 -59 31 -59 0z m10 -69 c0 -24 -50 -176 -58 -176 -4 0 -29 16
-55 36 l-48 35 73 59 c78 63 88 68 88 46z"/>
<path d="M1140 3844 c-32 -22 -190 -176 -190 -186 0 -5 10 -8 23 -8 35 0 247
-218 247 -253 0 -15 3 -27 8 -27 4 1 58 50 121 109 l114 108 -28 37 c-15 20
-31 36 -36 36 -5 0 -9 -24 -9 -53 0 -47 -4 -57 -33 -85 l-32 -31 -64 57 -63
57 21 19 c15 13 29 17 51 13 16 -4 30 -4 30 -1 0 3 -15 23 -32 44 -38 46 -62
53 -52 16 7 -27 -10 -66 -29 -66 -7 0 -36 28 -65 62 -58 70 -56 79 20 76 71
-2 110 39 72 76 -20 20 -43 20 -74 0z"/>
<path d="M2066 3744 c-9 -39 -41 -70 -85 -81 l-34 -9 42 -12 c44 -14 80 -57
82 -97 0 -12 7 -2 15 22 16 44 40 65 89 78 l30 8 -35 9 c-46 13 -60 25 -80 73
l-17 40 -7 -31z"/>
<path d="M3990 3711 c0 -44 -208 -231 -257 -231 -12 0 -24 -4 -27 -9 -5 -8 97
-133 114 -139 5 -2 15 12 23 30 16 38 160 179 209 204 18 9 44 20 57 23 23 7
22 9 -35 74 -60 68 -84 82 -84 48z"/>
<path d="M774 3425 c-18 -44 -7 -94 38 -173 17 -29 28 -55 26 -58 -9 -8 -102
66 -115 91 -8 14 -15 25 -17 25 -5 0 -96 -155 -96 -163 0 -3 15 -4 33 -1 47 7
275 -126 297 -173 8 -18 17 -33 20 -33 7 0 90 147 90 160 0 5 -15 10 -32 10
-42 0 -141 46 -136 62 11 33 129 18 165 -20 28 -31 18 -40 87 82 38 67 38 69
15 62 -13 -4 -71 -12 -128 -17 -99 -8 -151 -25 -151 -49 0 -25 -19 -6 -34 33
-23 60 -20 80 14 105 36 27 37 41 7 70 -36 34 -65 29 -83 -13z"/>
<path d="M4224 3423 c-16 -41 -262 -178 -304 -169 -17 3 -30 2 -30 -3 0 -14
149 -276 157 -276 21 0 103 29 103 36 0 4 -10 10 -22 14 -76 20 -102 31 -119
53 -25 32 -14 51 62 103 81 55 185 103 226 103 18 1 33 5 33 10 0 12 -83 156
-90 156 -3 0 -10 -12 -16 -27z"/>
<path d="M3611 3378 c-1 -10 -10 -26 -22 -36 -17 -17 -18 -20 -4 -26 8 -3 20
-16 25 -28 6 -17 9 -18 9 -6 1 9 10 23 22 31 18 13 18 16 5 24 -8 4 -19 19
-25 33 -6 17 -10 19 -10 8z"/>
<path d="M2145 3315 c-271 -19 -309 -24 -397 -51 -57 -18 -98 -63 -273 -297
-65 -88 -128 -163 -139 -167 -12 -5 -61 -23 -111 -41 -69 -24 -99 -41 -126
-70 -42 -45 -49 -70 -49 -189 0 -66 -4 -91 -15 -100 -33 -27 -12 -138 48 -259
21 -42 65 -61 140 -61 50 0 69 -4 73 -15 3 -8 14 -17 23 -20 9 -3 25 -23 34
-44 21 -48 62 -89 104 -107 38 -16 162 -18 215 -4 39 11 102 73 119 117 8 23
13 25 52 19 23 -3 99 -9 169 -12 l127 -6 12 -29 c31 -77 128 -112 275 -102 75
5 81 7 120 45 37 35 42 37 54 23 31 -37 107 -65 177 -65 92 1 144 25 180 84
l28 46 71 0 c39 0 99 3 132 6 60 7 62 6 71 -19 15 -39 97 -114 133 -121 93
-19 229 8 265 52 37 44 73 113 73 139 0 28 21 38 108 46 34 4 76 14 93 23 35
18 67 80 50 97 -6 6 -11 19 -11 28 0 9 -7 22 -16 30 -12 10 -14 25 -10 68 4
31 2 100 -2 155 -7 68 -6 108 2 128 10 27 8 32 -17 54 l-28 24 -428 0 -428 0
-7 43 c-4 23 -11 103 -16 177 -11 166 -26 267 -45 296 -29 45 -95 65 -243 75
-269 17 -390 18 -587 4z m544 -55 c153 -9 221 -22 221 -42 0 -6 -8 -7 -17 -3
-10 4 -105 9 -211 12 -174 5 -194 4 -212 -12 -10 -9 -62 -104 -114 -210 -80
-164 -116 -218 -132 -203 -1 2 36 80 83 173 117 232 117 230 96 251 -16 15
-36 16 -203 10 -172 -7 -321 -18 -430 -32 -66 -8 -38 11 35 24 204 37 578 51
884 32z m-624 -94 c15 -11 19 -30 22 -97 5 -108 -12 -173 -47 -177 -29 -3
-114 -24 -225 -57 -89 -26 -307 -44 -270 -22 11 7 74 16 140 22 101 8 120 13
123 28 3 15 -6 17 -75 17 -99 -1 -188 -20 -248 -54 -27 -14 -50 -24 -52 -22
-6 6 112 175 182 260 82 101 70 94 196 104 175 14 233 14 254 -2z m841 -147
c14 -135 18 -206 10 -198 -3 2 -12 72 -20 154 -9 83 -19 161 -22 175 -4 19 -3
22 6 14 6 -6 18 -72 26 -145z m55 -11 c21 -177 22 -188 11 -188 -5 0 -14 62
-20 138 -7 75 -15 155 -18 177 -4 22 -3 37 1 33 4 -4 16 -76 26 -160z m-133
75 c14 -26 32 -142 32 -201 0 -41 -3 -52 -16 -52 -31 0 -52 20 -59 57 -14 76
-24 83 -128 82 -129 -1 -136 -4 -171 -74 -31 -60 -31 -60 -71 -57 -22 2 -44 7
-48 11 -11 11 55 166 86 205 23 28 25 29 158 36 218 11 207 12 217 -7z m-705
-230 c-13 -2 -35 -2 -50 0 -16 2 -5 4 22 4 28 0 40 -2 28 -4z m-18 -102 c-27
-16 -60 -39 -71 -52 -20 -22 -21 -29 -12 -80 6 -31 8 -85 4 -121 -7 -63 -9
-66 -37 -70 -33 -5 -34 -3 -14 32 23 41 19 131 -8 171 -42 62 -101 75 -157 34
-52 -39 -70 -73 -70 -136 0 -42 5 -63 21 -83 l21 -27 -256 1 c-141 1 -256 3
-256 4 0 2 7 21 16 42 11 25 15 56 12 92 -6 70 -38 104 -105 112 l-48 5 75 28
c105 38 165 45 490 58 157 6 287 13 289 15 2 2 38 4 80 4 l76 0 -50 -29z m863
7 c15 -15 17 -523 2 -562 l-10 -26 -133 0 -134 0 -16 59 c-19 70 -85 149 -150
180 -47 23 -155 29 -200 12 -26 -10 -97 -78 -97 -93 0 -4 18 5 41 21 93 68
223 57 301 -26 35 -36 67 -109 68 -150 0 -62 5 -63 283 -64 139 0 270 -4 292
-8 25 -6 -76 -9 -266 -10 l-306 -1 -7 43 c-14 85 -30 122 -76 168 -113 113
-268 77 -349 -81 l-28 -55 -51 0 -52 -1 -1 116 c0 63 -1 177 -3 253 l-2 139
32 24 c17 13 58 35 90 49 59 24 61 24 410 25 259 0 353 -3 362 -12z m892 -86
c-8 -5 -186 -5 -395 -2 l-380 6 395 2 c217 1 388 -2 380 -6z m-512 -45 c2 -10
-3 -17 -12 -17 -10 0 -16 9 -16 21 0 24 23 21 28 -4z m295 8 c4 -8 2 -17 -3
-20 -6 -4 -10 3 -10 14 0 25 6 27 13 6z m-576 -11 c-3 -3 -12 -4 -19 -1 -8 3
-5 6 6 6 11 1 17 -2 13 -5z m198 -2 c-6 -5 -39 -6 -75 -2 l-65 7 75 1 c40 1
70 -2 65 -6z m268 1 c-23 -2 -64 -2 -90 0 -26 2 -7 3 42 3 50 0 71 -1 48 -3z
m255 0 c-15 -2 -42 -2 -60 0 -18 2 -6 4 27 4 33 0 48 -2 33 -4z m-1875 -18
c48 -47 20 -155 -40 -155 -27 0 -63 51 -63 88 0 26 17 63 34 74 18 13 54 9 69
-7z m-683 -14 c26 -50 1 -141 -40 -141 -44 0 -69 103 -33 142 21 24 60 23 73
-1z m2650 -26 c6 -4 10 -37 10 -75 l0 -68 -82 -7 c-46 -3 -236 -5 -423 -3
l-340 3 -3 83 -3 82 416 -5 c229 -2 420 -7 425 -10z m-1857 -204 c13 -13 -1
-195 -16 -214 -10 -12 -47 -16 -184 -19 l-172 -3 -4 25 c-7 36 -2 40 56 40 70
0 81 9 74 56 -6 36 -6 36 9 16 13 -19 25 -22 78 -22 35 0 67 5 74 12 20 20 15
76 -7 88 -31 16 -126 13 -141 -5 -9 -11 -16 -13 -24 -5 -6 6 -99 10 -257 10
l-247 0 -6 -26 c-8 -31 -1 -41 34 -47 21 -4 20 -5 -8 -6 -25 -1 -35 -7 -43
-28 -11 -29 0 -43 34 -43 11 0 17 -8 17 -25 0 -24 -2 -25 -68 -25 -76 0 -90 9
-110 68 l-11 32 54 0 c59 0 85 16 85 54 0 39 -31 58 -91 54 -52 -3 -55 -4 -66
-38 l-12 -35 0 47 c-1 25 3 48 9 50 25 8 934 -2 943 -11z m1558 8 c39 -13 104
-71 125 -111 21 -41 17 -45 -8 -8 -40 58 -101 93 -167 98 -50 4 -67 0 -110
-23 -55 -30 -87 -70 -125 -157 -25 -56 -44 -81 -27 -35 4 12 11 40 15 62 l7
40 -26 -32 c-25 -32 -29 -33 -98 -33 -40 0 -87 -4 -106 -10 l-34 -9 7 37 c3
20 6 70 6 110 l0 73 205 -2 c113 -1 209 1 212 5 10 10 87 7 124 -5z m309 -20
c0 -11 -11 -53 -26 -93 -25 -71 -25 -72 -61 -71 -30 1 -38 6 -43 26 -12 44
-38 86 -74 117 -20 17 -36 34 -36 37 0 3 54 5 120 5 115 0 120 -1 120 -21z
m-1404 -90 c59 -35 90 -152 62 -234 -18 -55 -85 -105 -141 -105 -35 0 -50 7
-89 40 -38 33 -49 50 -57 91 -37 170 91 288 225 208z m1099 0 c50 -30 78 -89
78 -164 -1 -77 -25 -121 -84 -153 -103 -55 -209 27 -209 161 0 72 20 117 67
150 47 33 98 35 148 6z m-1855 1 c0 -5 -18 -10 -39 -10 -22 0 -43 5 -46 10 -4
6 12 10 39 10 25 0 46 -4 46 -10z m-209 -29 c-16 -11 -6 -31 16 -31 10 0 14 6
10 20 -4 16 0 20 19 20 23 0 24 -2 24 -80 l0 -81 -117 3 -118 3 -7 69 c-4 39
-5 74 -2 78 3 4 47 8 97 8 56 0 87 -4 78 -9z m2411 -36 c-6 -14 -16 -25 -22
-25 -13 0 -13 26 1 52 17 31 36 7 21 -27z"/>
<path d="M1327 2533 c-4 -3 -7 -15 -7 -26 0 -19 6 -19 178 -14 97 4 187 7 200
7 15 0 22 6 22 20 0 19 -7 20 -193 20 -107 0 -197 -3 -200 -7z"/>
<path d="M1400 2460 c20 -13 320 -13 320 0 0 6 -62 10 -167 10 -112 0 -163 -4
-153 -10z"/>
<path d="M2782 2711 c-8 -5 -12 -23 -10 -47 l3 -39 64 -3 c68 -3 81 4 81 45 0
35 -26 53 -78 53 -26 0 -53 -4 -60 -9z m83 -41 c4 -6 -7 -10 -25 -10 -18 0
-29 4 -25 10 3 6 15 10 25 10 10 0 22 -4 25 -10z"/>
<path d="M2111 2576 c-7 -8 -11 -29 -9 -47 2 -28 8 -34 36 -41 46 -12 86 8 90
47 3 19 -2 33 -14 42 -24 17 -89 17 -103 -1z"/>
<path d="M2663 2403 c-13 -2 -23 -11 -23 -19 0 -11 26 -14 148 -14 144 0 181
7 168 29 -7 11 -242 14 -293 4z"/>
<path d="M2320 2223 c-66 -67 -64 -181 5 -242 44 -38 74 -46 119 -31 41 13 70
46 87 97 13 40 7 121 -12 150 -22 36 -73 63 -118 63 -37 0 -49 -6 -81 -37z
m147 -62 c33 -49 30 -95 -7 -133 -26 -25 -36 -29 -63 -24 -64 12 -94 83 -62
146 32 61 95 66 132 11z"/>
<path d="M2369 2152 c-41 -34 -24 -112 26 -112 50 0 73 72 35 110 -25 25 -32
25 -61 2z"/>
<path d="M3448 2234 c-26 -19 -40 -39 -52 -77 -15 -47 -15 -57 -1 -104 20 -67
61 -103 117 -103 81 0 134 62 132 154 -1 63 -23 108 -67 135 -46 28 -85 26
-129 -5z m116 -65 c75 -89 -19 -225 -99 -144 -35 34 -35 111 0 149 32 35 67
34 99 -5z"/>
<path d="M3464 2135 c-21 -32 -10 -83 21 -97 28 -13 70 14 80 51 16 60 -67 98
-101 46z"/>
<path d="M1382 2218 c7 -19 38 -22 38 -4 0 10 -9 16 -21 16 -12 0 -19 -5 -17
-12z"/>
<path d="M3437 3279 c-13 -95 -36 -116 -134 -129 -41 -5 -48 -8 -23 -9 54 -2
105 -19 125 -41 10 -12 24 -46 31 -78 11 -52 12 -54 13 -19 1 56 26 105 58
118 15 6 55 15 88 19 l60 7 -53 2 c-64 1 -116 22 -133 52 -6 12 -15 45 -18 73
l-7 51 -7 -46z"/>
<path d="M3203 3041 c-14 -23 7 -43 28 -27 13 10 13 13 -2 27 -15 15 -17 15
-26 0z"/>
<path d="M3887 1918 c-14 -18 -48 -80 -76 -136 l-52 -104 30 7 c45 10 299
-118 315 -157 6 -16 14 -28 17 -28 9 0 149 265 149 283 0 12 -59 47 -80 47 -5
0 0 -21 12 -46 19 -45 19 -48 2 -86 -9 -21 -21 -41 -25 -44 -12 -7 -149 57
-149 71 0 19 34 45 58 45 36 0 25 14 -34 43 l-57 28 8 -23 c14 -46 15 -63 6
-77 -8 -12 -21 -7 -78 25 -37 22 -68 46 -68 54 0 8 14 18 30 23 56 16 80 33
83 55 8 57 -53 70 -91 20z"/>
<path d="M1104 1860 c-28 -29 -294 -81 -342 -68 -19 5 -36 7 -39 4 -3 -3 9
-30 27 -61 29 -52 50 -64 50 -29 0 18 44 64 62 64 7 0 28 -27 46 -59 l32 -59
-28 -20 c-15 -12 -40 -24 -55 -27 -15 -4 -27 -9 -27 -12 0 -11 85 -163 91
-163 4 0 9 10 13 23 3 12 59 79 124 148 68 71 122 137 126 153 5 21 0 41 -17
74 -29 55 -36 58 -63 32z m-22 -67 c-13 -23 -120 -128 -125 -122 -15 19 -58
101 -55 105 6 5 182 42 186 38 2 -1 -1 -11 -6 -21z"/>
<path d="M2007 1840 c-3 -12 -15 -24 -27 -27 l-21 -6 23 -11 c12 -6 25 -22 28
-36 l6 -25 7 27 c5 19 16 30 35 35 l27 7 -25 6 c-14 3 -30 16 -36 28 l-11 23
-6 -21z"/>
<path d="M1841 1765 c-1 -51 -29 -106 -61 -122 -14 -7 -43 -15 -65 -19 l-40
-8 46 -6 c82 -10 108 -41 122 -145 4 -27 4 -26 6 8 3 87 49 136 128 138 30 0
34 2 18 9 -11 5 -32 9 -47 9 -15 1 -41 13 -58 29 -24 22 -32 39 -39 87 -7 51
-9 54 -10 20z"/>
<path d="M1280 1556 c-6 -19 -44 -73 -85 -120 -78 -92 -101 -139 -91 -189 13
-62 83 -127 139 -127 20 0 23 -4 20 -24 -4 -17 5 -35 32 -65 21 -23 40 -41 44
-41 4 0 12 15 19 33 24 65 185 230 238 243 13 3 24 9 24 13 0 9 -129 136 -133
130 -2 -2 -12 -24 -22 -48 -11 -26 -56 -83 -105 -133 -72 -75 -90 -88 -117
-88 -55 0 -80 49 -52 103 36 69 184 207 222 207 10 0 17 4 17 8 0 9 -123 132
-132 132 -4 0 -12 -15 -18 -34z"/>
<path d="M2941 1538 c-14 -41 -53 -78 -82 -78 -11 0 -19 -4 -19 -10 0 -5 8
-10 18 -10 29 0 63 -30 82 -74 10 -22 19 -33 19 -23 2 36 31 76 66 88 43 16
44 25 6 34 -36 8 -57 30 -68 75 l-10 35 -12 -37z"/>
<path d="M3675 1545 c-28 -10 -64 -40 -122 -102 -45 -48 -78 -89 -75 -90 4 -1
20 -4 35 -7 41 -10 241 -196 253 -236 l9 -32 58 60 c31 33 57 65 57 70 0 5
-10 12 -23 16 -34 8 -107 64 -107 81 0 8 12 18 27 21 36 9 111 -30 119 -62 4
-13 10 -24 14 -24 12 0 109 113 108 125 -1 6 -10 8 -22 6 -11 -1 -58 0 -103 4
l-83 7 6 38 c15 92 -62 156 -151 125z m42 -106 c26 -26 37 -66 25 -99 l-9 -23
-42 38 c-62 56 -87 95 -70 106 20 14 70 2 96 -22z"/>
<path d="M1603 1515 c-19 -20 11 -42 31 -23 12 13 12 16 -3 25 -12 7 -20 7
-28 -2z"/>
<path d="M1655 1216 c-14 -18 -25 -36 -25 -39 0 -4 33 -4 74 -1 49 5 75 3 80
-4 14 -23 -121 -260 -171 -301 l-36 -29 81 -41 c45 -23 86 -41 91 -41 4 0 11
23 13 50 7 69 120 303 145 298 9 -2 31 -31 50 -65 l34 -61 -21 -39 c-25 -47
-27 -131 -4 -179 47 -98 182 -150 282 -108 146 60 175 244 56 342 -81 67 -215
69 -287 5 -17 -16 -18 -16 -8 11 23 59 21 61 -159 151 l-169 85 -26 -34z m565
-216 c27 -27 33 -60 28 -140 -6 -76 -35 -140 -80 -173 -25 -19 -28 -19 -52 -4
-69 46 -48 255 32 317 31 25 47 25 72 0z"/>
<path d="M3228 1206 c-21 -11 -38 -24 -38 -28 0 -4 10 -17 23 -30 33 -34 95
-302 79 -347 -8 -21 -8 -31 0 -31 14 0 108 54 108 62 0 4 -16 15 -35 24 -20 9
-40 26 -46 36 -13 24 -5 34 62 72 l47 27 22 -28 c12 -15 24 -40 27 -56 3 -15
9 -26 13 -25 28 12 160 93 160 99 0 3 -12 9 -27 13 -16 3 -78 52 -143 112 -63
58 -125 110 -138 115 -36 14 -73 9 -114 -15z m125 -136 c31 -28 57 -55 57 -58
0 -10 -101 -65 -107 -58 -6 6 -43 154 -43 174 0 18 24 3 93 -58z"/>
<path d="M2867 1058 c-54 -11 -90 -32 -125 -72 -47 -54 -62 -122 -41 -187 37
-110 148 -168 261 -135 80 23 138 90 138 160 0 43 -16 48 -25 7 -13 -60 -91
-99 -160 -80 -96 27 -166 226 -90 261 13 6 30 8 39 5 18 -7 36 -67 36 -119 0
-67 71 -69 129 -3 45 52 40 104 -14 139 -35 23 -102 34 -148 24z"/>
</g>
</svg>
